<svg width="25" height="26" viewBox="0 0 25 26" fill="none" xmlns="http://www.w3.org/2000/svg">
<g clip-path="url(#clip0_11_12)">
<path d="M17.1866 9.8125C17.1866 11.0557 16.6927 12.248 15.8136 13.1271C14.9346 14.0061 13.7423 14.5 12.4991 14.5C11.2559 14.5 10.0636 14.0061 9.18452 13.1271C8.30544 12.248 7.81158 11.0557 7.81158 9.8125C7.81158 8.5693 8.30544 7.37701 9.18452 6.49794C10.0636 5.61886 11.2559 5.125 12.4991 5.125C13.7423 5.125 14.9346 5.61886 15.8136 6.49794C16.6927 7.37701 17.1866 8.5693 17.1866 9.8125Z" fill="#2C3E50"/>
<path fill-rule="evenodd" clip-rule="evenodd" d="M-0.000915527 12.9375C-0.000915527 9.62229 1.31605 6.44287 3.66025 4.09867C6.00445 1.75446 9.18388 0.4375 12.4991 0.4375C15.8143 0.4375 18.9937 1.75446 21.3379 4.09867C23.6821 6.44287 24.9991 9.62229 24.9991 12.9375C24.9991 16.2527 23.6821 19.4321 21.3379 21.7763C18.9937 24.1205 15.8143 25.4375 12.4991 25.4375C9.18388 25.4375 6.00445 24.1205 3.66025 21.7763C1.31605 19.4321 -0.000915527 16.2527 -0.000915527 12.9375ZM12.4991 2C10.4394 2.00011 8.42153 2.58182 6.67784 3.67817C4.93414 4.77452 3.53546 6.34095 2.64278 8.19718C1.75009 10.0534 1.39969 12.124 1.63189 14.1706C1.8641 16.2171 2.66948 18.1566 3.95533 19.7656C5.06471 17.9781 7.5069 16.0625 12.4991 16.0625C17.4913 16.0625 19.9319 17.9766 21.0428 19.7656C22.3287 18.1566 23.1341 16.2171 23.3663 14.1706C23.5985 12.124 23.2481 10.0534 22.3554 8.19718C21.4627 6.34095 20.064 4.77452 18.3203 3.67817C16.5766 2.58182 14.5588 2.00011 12.4991 2Z" fill="#2C3E50"/>
</g>
<defs>
<clipPath id="clip0_11_12">
<rect width="25" height="25" fill="white" transform="translate(-0.000915527 0.4375)"/>
</clipPath>
</defs>
</svg>
