<svg width="26" height="26" viewBox="0 0 26 26" fill="none" xmlns="http://www.w3.org/2000/svg">
<path d="M21.5938 2.4375H4.40625C3.78465 2.4375 3.18851 2.68443 2.74897 3.12397C2.30943 3.56351 2.0625 4.15965 2.0625 4.78125L2.0625 21.9688C2.0625 22.5904 2.30943 23.1865 2.74897 23.626C3.18851 24.0656 3.78465 24.3125 4.40625 24.3125H11.1079V16.8755H8.03174V13.375H11.1079V10.707C11.1079 7.67236 12.9146 5.99609 15.6816 5.99609C17.0068 5.99609 18.3926 6.23242 18.3926 6.23242V9.21094H16.8657C15.3613 9.21094 14.8921 10.1445 14.8921 11.1021V13.375H18.2505L17.7134 16.8755H14.8921V24.3125H21.5938C22.2154 24.3125 22.8115 24.0656 23.251 23.626C23.6906 23.1865 23.9375 22.5904 23.9375 21.9688V4.78125C23.9375 4.15965 23.6906 3.56351 23.251 3.12397C22.8115 2.68443 22.2154 2.4375 21.5938 2.4375Z" fill="#2C3E50"/>
</svg>
