<svg width="29" height="28" viewBox="0 0 29 28" fill="none" xmlns="http://www.w3.org/2000/svg">
<path d="M2.89377 7.01786H26.1081C26.6012 7.01786 27.0009 6.61814 27.0009 6.125V3.89286C27.0009 3.39972 26.6012 3 26.1081 3H2.89377C2.40064 3 2.00092 3.39972 2.00092 3.89286V6.125C2.00092 6.61814 2.40064 7.01786 2.89377 7.01786ZM2.89377 15.9464H26.1081C26.6012 15.9464 27.0009 15.5467 27.0009 15.0536V12.8214C27.0009 12.3283 26.6012 11.9286 26.1081 11.9286H2.89377C2.40064 11.9286 2.00092 12.3283 2.00092 12.8214V15.0536C2.00092 15.5467 2.40064 15.9464 2.89377 15.9464ZM2.89377 24.875H26.1081C26.6012 24.875 27.0009 24.4753 27.0009 23.9821V21.75C27.0009 21.2569 26.6012 20.8571 26.1081 20.8571H2.89377C2.40064 20.8571 2.00092 21.2569 2.00092 21.75V23.9821C2.00092 24.4753 2.40064 24.875 2.89377 24.875Z" fill="#2C3E50"/>
</svg>
