<svg width="26" height="26" viewBox="0 0 26 26" fill="none" xmlns="http://www.w3.org/2000/svg">
<path d="M13.0049 7.75977C9.89941 7.75977 7.39453 10.2646 7.39453 13.3701C7.39453 16.4756 9.89941 18.9805 13.0049 18.9805C16.1104 18.9805 18.6152 16.4756 18.6152 13.3701C18.6152 10.2646 16.1104 7.75977 13.0049 7.75977ZM13.0049 17.0176C10.998 17.0176 9.35742 15.3818 9.35742 13.3701C9.35742 11.3584 10.9932 9.72266 13.0049 9.72266C15.0166 9.72266 16.6523 11.3584 16.6523 13.3701C16.6523 15.3818 15.0117 17.0176 13.0049 17.0176ZM20.1533 7.53027C20.1533 8.25781 19.5674 8.83887 18.8447 8.83887C18.1172 8.83887 17.5361 8.25293 17.5361 7.53027C17.5361 6.80762 18.1221 6.22168 18.8447 6.22168C19.5674 6.22168 20.1533 6.80762 20.1533 7.53027ZM23.8691 8.8584C23.7861 7.10547 23.3857 5.55273 22.1016 4.27344C20.8223 2.99414 19.2695 2.59375 17.5166 2.50586C15.71 2.40332 10.2949 2.40332 8.48828 2.50586C6.74023 2.58887 5.1875 2.98926 3.90332 4.26855C2.61914 5.54785 2.22363 7.10059 2.13574 8.85352C2.0332 10.6602 2.0332 16.0752 2.13574 17.8818C2.21875 19.6348 2.61914 21.1875 3.90332 22.4668C5.1875 23.7461 6.73535 24.1465 8.48828 24.2344C10.2949 24.3369 15.71 24.3369 17.5166 24.2344C19.2695 24.1514 20.8223 23.751 22.1016 22.4668C23.3809 21.1875 23.7812 19.6348 23.8691 17.8818C23.9717 16.0752 23.9717 10.665 23.8691 8.8584ZM21.5352 19.8203C21.1543 20.7773 20.417 21.5146 19.4551 21.9004C18.0146 22.4717 14.5967 22.3398 13.0049 22.3398C11.4131 22.3398 7.99023 22.4668 6.55469 21.9004C5.59766 21.5195 4.86035 20.7822 4.47461 19.8203C3.90332 18.3799 4.03516 14.9619 4.03516 13.3701C4.03516 11.7783 3.9082 8.35547 4.47461 6.91992C4.85547 5.96289 5.59277 5.22559 6.55469 4.83984C7.99512 4.26855 11.4131 4.40039 13.0049 4.40039C14.5967 4.40039 18.0195 4.27344 19.4551 4.83984C20.4121 5.2207 21.1494 5.95801 21.5352 6.91992C22.1064 8.36035 21.9746 11.7783 21.9746 13.3701C21.9746 14.9619 22.1064 18.3848 21.5352 19.8203Z" fill="#2C3E50"/>
</svg>
