<svg width="26" height="26" viewBox="0 0 26 26" fill="none" xmlns="http://www.w3.org/2000/svg">
<path d="M12.9896 2.95833C7.23958 2.95833 2.58333 7.625 2.58333 13.375C2.58333 19.125 7.23958 23.7917 12.9896 23.7917C18.75 23.7917 23.4167 19.125 23.4167 13.375C23.4167 7.625 18.75 2.95833 12.9896 2.95833ZM20.2083 9.20833H17.1354C16.8021 7.90625 16.3229 6.65625 15.6979 5.5C17.6146 6.15625 19.2083 7.48958 20.2083 9.20833ZM13 5.08333C13.8646 6.33333 14.5417 7.71875 14.9896 9.20833H11.0104C11.4583 7.71875 12.1354 6.33333 13 5.08333ZM4.9375 15.4583C4.77083 14.7917 4.66666 14.0937 4.66666 13.375C4.66666 12.6562 4.77083 11.9583 4.9375 11.2917H8.45833C8.375 11.9792 8.3125 12.6667 8.3125 13.375C8.3125 14.0833 8.375 14.7708 8.45833 15.4583H4.9375ZM5.79166 17.5417H8.86458C9.19791 18.8437 9.67708 20.0937 10.3021 21.25C8.38541 20.5937 6.79166 19.2708 5.79166 17.5417ZM8.86458 9.20833H5.79166C6.79166 7.47916 8.38541 6.15625 10.3021 5.5C9.67708 6.65625 9.19791 7.90625 8.86458 9.20833ZM13 21.6667C12.1354 20.4167 11.4583 19.0312 11.0104 17.5417H14.9896C14.5417 19.0312 13.8646 20.4167 13 21.6667ZM15.4375 15.4583H10.5625C10.4687 14.7708 10.3958 14.0833 10.3958 13.375C10.3958 12.6667 10.4687 11.9687 10.5625 11.2917H15.4375C15.5312 11.9687 15.6042 12.6667 15.6042 13.375C15.6042 14.0833 15.5312 14.7708 15.4375 15.4583ZM15.6979 21.25C16.3229 20.0937 16.8021 18.8437 17.1354 17.5417H20.2083C19.2083 19.2604 17.6146 20.5937 15.6979 21.25ZM17.5417 15.4583C17.625 14.7708 17.6875 14.0833 17.6875 13.375C17.6875 12.6667 17.625 11.9792 17.5417 11.2917H21.0625C21.2292 11.9583 21.3333 12.6562 21.3333 13.375C21.3333 14.0937 21.2292 14.7917 21.0625 15.4583H17.5417Z" fill="#2C3E50"/>
</svg>
