<svg width="100" height="100" viewBox="0 0 100 100" fill="none" xmlns="http://www.w3.org/2000/svg">
<g clip-path="url(#clip0_302_530)">
<path d="M98.008 10.1594H1.99199C0.891797 10.1594 0 11.0512 0 12.1514V74.5939C0 75.6941 0.891797 76.5859 1.99199 76.5859H10.9982L9.19004 87.5236C9.09453 88.1008 9.25781 88.691 9.63633 89.1371C10.0148 89.5834 10.5703 89.8404 11.1555 89.8404H88.8447C89.4301 89.8404 89.9854 89.583 90.3639 89.1371C90.7424 88.691 90.9055 88.1008 90.8102 87.5236L89.002 76.5859H98.0082C99.1082 76.5859 100 75.6941 100 74.5939V12.1514C100 11.0512 99.108 10.1594 98.008 10.1594ZM13.5037 85.8566L15.0361 76.5861H18.0699L17.5439 80.9158C17.4752 81.4818 17.6523 82.05 18.0305 82.4769C18.4086 82.9037 18.9514 83.148 19.5215 83.148H80.4777C81.0479 83.148 81.5906 82.9037 81.9688 82.4769C82.3467 82.05 82.524 81.4816 82.4551 80.9158L81.9293 76.5861H84.9629L86.4959 85.8566H13.5037ZM21.7705 79.1637L22.0836 76.5859H77.9164L78.2293 79.1637H21.7705ZM96.016 72.6019H3.98398V14.1433H96.0158V72.6019H96.016Z" fill="#2C3E50"/>
<path d="M92.0318 16.0553H7.96816C6.86796 16.0553 5.97617 16.9471 5.97617 18.0473V68.6985C5.97617 69.7987 6.86796 70.6905 7.96816 70.6905H92.0318C93.1318 70.6905 94.0238 69.7987 94.0238 68.6985V18.0473C94.0238 16.9471 93.1318 16.0553 92.0318 16.0553ZM90.0398 66.7065H9.96015V20.0393H90.0398V66.7065Z" fill="#2C3E50"/>
<path d="M62.1514 60.6768H61.1553C60.0553 60.6768 59.1633 61.5686 59.1633 62.6688C59.1633 63.7689 60.0553 64.6607 61.1553 64.6607H62.1514C63.2514 64.6607 64.1434 63.7689 64.1434 62.6688C64.1434 61.5686 63.2514 60.6768 62.1514 60.6768Z" fill="#2C3E50"/>
<path d="M85.4582 60.6768H69.3227C68.2227 60.6768 67.3307 61.5686 67.3307 62.6688C67.3307 63.7689 68.2227 64.6607 69.3227 64.6607H85.4582C86.5582 64.6607 87.4502 63.7689 87.4502 62.6688C87.4502 61.5686 86.5582 60.6768 85.4582 60.6768Z" fill="#2C3E50"/>
</g>
<defs>
<clipPath id="clip0_302_530">
<rect width="100" height="100" fill="white"/>
</clipPath>
</defs>
</svg>
