<svg width="100" height="100" viewBox="0 0 100 100" fill="none" xmlns="http://www.w3.org/2000/svg">
<path d="M91.3698 12.9316H8.62928C3.87102 12.9316 0 16.8055 0 21.5691V45.6732C0 50.4364 3.87102 54.3108 8.62928 54.3108H44.8276V78.4483H48.276V54.3108H51.7245V78.4483H55.1729V54.3108H91.3712C96.1295 54.3108 100 50.4364 100 45.6732V21.5691C99.999 16.8055 96.128 12.9316 91.3698 12.9316ZM96.5506 45.6728C96.5506 48.5332 94.2264 50.8618 91.3698 50.8618H8.62928C5.77268 50.8618 3.44843 48.5332 3.44843 45.6728V21.5691C3.44843 18.7086 5.77268 16.38 8.62928 16.38H91.3698C94.2264 16.38 96.5506 18.7086 96.5506 21.5691V45.6728Z" fill="#2C3E50"/>
<path d="M81.0583 42.2413H17.2411V45.6897H81.0583V42.2413Z" fill="#2C3E50"/>
<path d="M89.6542 37.0691H10.3448V40.5175H89.6542V37.0691Z" fill="#2C3E50"/>
<path d="M74.1373 76.7236C73.1853 76.7236 72.4131 77.4948 72.4131 78.4478C72.4131 81.3 70.0927 83.62 67.2409 83.62C64.3887 83.62 62.0688 81.2996 62.0688 78.4478V59.4824H58.6204V78.4478C58.6204 83.2007 62.488 87.0684 67.2409 87.0684C71.9939 87.0684 75.8615 83.2007 75.8615 78.4478C75.8615 77.4948 75.0894 76.7236 74.1373 76.7236Z" fill="#2C3E50"/>
<path d="M37.9307 78.4478C37.9307 81.3 35.6103 83.62 32.7586 83.62C29.9068 83.62 27.5864 81.2996 27.5864 78.4478C27.5864 77.4948 26.8143 76.7236 25.8622 76.7236C24.9102 76.7236 24.138 77.4948 24.138 78.4478C24.138 83.2007 28.0056 87.0684 32.7586 87.0684C37.5115 87.0684 41.3792 83.2007 41.3792 78.4478V59.4824H37.9307V78.4478Z" fill="#2C3E50"/>
</svg>
