<svg width="100" height="100" viewBox="0 0 100 100" fill="none" xmlns="http://www.w3.org/2000/svg">
<path d="M62.5 68.7498H58.9293C57.9431 68.7498 57.1436 69.5494 57.1436 70.5355C57.1436 71.5217 57.9431 72.3212 58.9293 72.3212H62.5C63.4862 72.3212 64.2857 71.5217 64.2857 70.5355C64.2857 69.5494 63.4862 68.7498 62.5 68.7498Z" fill="#2C3E50"/>
<path d="M88.3929 36.6072C88.0922 36.6072 87.7951 36.6223 87.5 36.6449V15.1786C87.5 8.28596 81.8924 2.67859 75 2.67859H25C18.1076 2.67859 12.5 8.28596 12.5 15.1786V36.6449C12.2049 36.6223 11.9078 36.6072 11.6071 36.6072C5.20692 36.6072 0 41.8141 0 48.2143C0 52.2179 2.02656 55.8714 5.35714 57.9944V81.5476C5.35714 81.6275 5.36429 81.7058 5.37455 81.7831C5.65134 86.4587 9.54152 90.1786 14.2857 90.1786V91.9643C14.2857 94.9181 16.6888 97.3214 19.6429 97.3214C22.5969 97.3214 25 94.9181 25 91.9643V90.1786H75V91.9643C75 94.9181 77.4031 97.3214 80.3571 97.3214C83.3112 97.3214 85.7143 94.9181 85.7143 91.9643V90.1786C90.4585 90.1786 94.3487 86.4587 94.6254 81.7831C94.6357 81.7058 94.6429 81.6275 94.6429 81.5476V57.9944C97.9734 55.8712 100 52.2177 100 48.2143C100 41.8141 94.7931 36.6072 88.3929 36.6072ZM16.0714 15.1786C16.0714 10.2554 20.0768 6.25002 25 6.25002H75C79.9232 6.25002 83.9286 10.2554 83.9286 15.1786V37.5011C79.7382 39.254 76.7857 43.3953 76.7857 48.2143V56.2549C75.2924 55.1313 73.437 54.4643 71.4286 54.4643H28.5714C26.5629 54.4643 24.7076 55.1313 23.2143 56.2549V48.2143C23.2143 43.3953 20.2618 39.254 16.0714 37.5011V15.1786ZM21.4286 91.9643C21.4286 92.9489 20.6275 93.75 19.6429 93.75C18.6583 93.75 17.8571 92.9489 17.8571 91.9643V90.1786H21.4286V91.9643ZM82.1429 91.9643C82.1429 92.9489 81.3417 93.75 80.3571 93.75C79.3725 93.75 78.5714 92.9489 78.5714 91.9643V90.1786H82.1429V91.9643ZM92.0442 55.3714C91.4471 55.6768 91.0714 56.2909 91.0714 56.9614V81.25C91.0714 84.2038 88.6683 86.6072 85.7143 86.6072H14.2857C11.3317 86.6072 8.92857 84.2038 8.92857 81.25V56.9616C8.92857 56.2911 8.5529 55.677 7.9558 55.3717C5.25134 53.9886 3.57143 51.2462 3.57143 48.2143C3.57143 43.7833 7.17612 40.1786 11.6071 40.1786C16.0382 40.1786 19.6429 43.7833 19.6429 48.2143V63.3931V63.3933C19.6431 68.3163 23.6482 72.3212 28.5714 72.3212H51.7853C52.7714 72.3212 53.571 71.5217 53.571 70.5355C53.571 69.5493 52.7714 68.7498 51.7853 68.7498H28.5714C25.6176 68.7498 23.2143 66.3467 23.2143 63.3929C23.2143 60.4391 25.6176 58.0357 28.5714 58.0357H71.4286C74.3824 58.0357 76.7857 60.4391 76.7857 63.3929C76.7857 66.3467 74.3824 68.7498 71.4286 68.7498H69.6429C68.6567 68.7498 67.8571 69.5493 67.8571 70.5355C67.8571 71.5217 68.6567 72.3212 69.6429 72.3212H71.4286C76.3516 72.3212 80.3569 68.3163 80.3571 63.3933V63.3931V48.2143C80.3571 43.7833 83.9618 40.1786 88.3929 40.1786C92.8239 40.1786 96.4286 43.7833 96.4286 48.2143C96.4286 51.2462 94.7487 53.9886 92.0442 55.3714Z" fill="#2C3E50"/>
</svg>
