<svg width="25" height="26" viewBox="0 0 25 26" fill="none" xmlns="http://www.w3.org/2000/svg">
<path d="M10.8633 3.7041L11.9473 2.62012C12.4063 2.16113 13.1485 2.16113 13.6026 2.62012L23.0948 12.1074C23.5538 12.5664 23.5538 13.3086 23.0948 13.7627L13.6026 23.2549C13.1436 23.7139 12.4014 23.7139 11.9473 23.2549L10.8633 22.1709C10.3995 21.707 10.4092 20.9502 10.8829 20.4961L16.7667 14.8906H2.73346C2.08405 14.8906 1.56158 14.3682 1.56158 13.7188V12.1563C1.56158 11.5068 2.08405 10.9844 2.73346 10.9844H16.7667L10.8829 5.37891C10.4044 4.9248 10.3946 4.16797 10.8633 3.7041Z" fill="#2C3E50"/>
</svg>
