<svg width="25" height="26" viewBox="0 0 25 26" fill="none" xmlns="http://www.w3.org/2000/svg">
<g clip-path="url(#clip0_11_39)">
<path d="M24.9991 12.9375C24.9991 6.03436 19.4022 0.4375 12.4991 0.4375C5.59517 0.4375 -0.000915527 6.03436 -0.000915527 12.9375C-0.000915527 19.8414 5.59517 25.4375 12.4991 25.4375C19.4022 25.4375 24.9991 19.8414 24.9991 12.9375ZM1.56161 12.9375C1.56161 6.8969 6.45848 2.00002 12.4991 2.00002C18.5397 2.00002 23.4366 6.8969 23.4366 12.9375C23.4366 18.9781 18.5397 23.875 12.4991 23.875C6.45848 23.875 1.56161 18.9781 1.56161 12.9375Z" fill="#2C3E50"/>
<path d="M13.2952 19.9688V7.78672L17.4163 11.8492C17.7241 12.1539 18.2241 12.1539 18.5319 11.8492C18.8397 11.5438 18.8397 11.0492 18.5319 10.7445L13.0639 5.35471C12.9178 5.20859 12.7123 5.12502 12.5061 5.12502C12.3006 5.12502 12.0952 5.20937 11.9483 5.35393L6.48031 10.7438C6.17171 11.0492 6.17249 11.5438 6.48031 11.8485C6.7889 12.1539 7.2881 12.1539 7.59669 11.8485L11.7178 7.78594V19.9688C11.7178 20.4 12.0709 20.75 12.5069 20.75C12.942 20.75 13.2952 20.4 13.2952 19.9688Z" fill="#2C3E50"/>
</g>
<defs>
<clipPath id="clip0_11_39">
<rect width="25" height="25" fill="white" transform="translate(24.9991 0.4375) rotate(90)"/>
</clipPath>
</defs>
</svg>
