<svg width="26" height="26" viewBox="0 0 26 26" fill="none" xmlns="http://www.w3.org/2000/svg">
<path d="M7.39583 12.1146C8.89583 15.0625 11.3125 17.4687 14.2604 18.9792L16.5521 16.6875C16.8333 16.4062 17.25 16.3125 17.6146 16.4375C18.7812 16.8229 20.0417 17.0312 21.3333 17.0312C21.9062 17.0312 22.375 17.5 22.375 18.0729V21.7083C22.375 22.2812 21.9062 22.75 21.3333 22.75C11.5521 22.75 3.625 14.8229 3.625 5.04167C3.625 4.46875 4.09375 4 4.66667 4H8.3125C8.88542 4 9.35417 4.46875 9.35417 5.04167C9.35417 6.34375 9.5625 7.59375 9.94792 8.76042C10.0625 9.125 9.97917 9.53125 9.6875 9.82292L7.39583 12.1146Z" fill="#2C3E50"/>
</svg>
