<svg width="26" height="26" viewBox="0 0 26 26" fill="none" xmlns="http://www.w3.org/2000/svg">
<path d="M11 12.1875C11.0521 11.8437 11.1667 11.5417 11.3125 11.2812C11.4583 11.0208 11.6667 10.8021 11.9271 10.6354C12.1771 10.4792 12.4896 10.4062 12.875 10.3958C13.1146 10.4062 13.3333 10.4479 13.5312 10.5312C13.7396 10.625 13.9271 10.75 14.0729 10.9062C14.2187 11.0625 14.3333 11.25 14.4271 11.4583C14.5208 11.6667 14.5625 11.8958 14.5729 12.125H16.4375C16.4167 11.6354 16.3229 11.1875 16.1458 10.7812C15.9687 10.375 15.7292 10.0208 15.4167 9.72916C15.1042 9.4375 14.7292 9.20833 14.2917 9.04166C13.8542 8.875 13.375 8.80208 12.8437 8.80208C12.1667 8.80208 11.5729 8.91666 11.0729 9.15625C10.5729 9.39583 10.1562 9.70833 9.82291 10.1146C9.48958 10.5208 9.23958 10.9896 9.08333 11.5312C8.92708 12.0729 8.83333 12.6354 8.83333 13.2396V13.5208C8.83333 14.125 8.91666 14.6875 9.07291 15.2292C9.22916 15.7708 9.47916 16.2396 9.8125 16.6354C10.1458 17.0312 10.5625 17.3542 11.0625 17.5833C11.5625 17.8125 12.1562 17.9375 12.8333 17.9375C13.3229 17.9375 13.7812 17.8542 14.2083 17.6979C14.6354 17.5417 15.0104 17.3229 15.3333 17.0417C15.6562 16.7604 15.9167 16.4375 16.1042 16.0625C16.2917 15.6875 16.4062 15.2917 16.4167 14.8646H14.5521C14.5417 15.0833 14.4896 15.2812 14.3958 15.4687C14.3021 15.6562 14.1771 15.8125 14.0208 15.9479C13.8646 16.0833 13.6875 16.1875 13.4792 16.2604C13.2812 16.3333 13.0729 16.3542 12.8542 16.3646C12.4792 16.3542 12.1667 16.2812 11.9271 16.125C11.6667 15.9583 11.4583 15.7396 11.3125 15.4792C11.1667 15.2187 11.0521 14.9062 11 14.5625C10.9479 14.2187 10.9167 13.8646 10.9167 13.5208V13.2396C10.9167 12.875 10.9479 12.5312 11 12.1875ZM13 2.95833C7.25 2.95833 2.58333 7.625 2.58333 13.375C2.58333 19.125 7.25 23.7917 13 23.7917C18.75 23.7917 23.4167 19.125 23.4167 13.375C23.4167 7.625 18.75 2.95833 13 2.95833ZM13 21.7083C8.40625 21.7083 4.66666 17.9687 4.66666 13.375C4.66666 8.78125 8.40625 5.04166 13 5.04166C17.5937 5.04166 21.3333 8.78125 21.3333 13.375C21.3333 17.9687 17.5937 21.7083 13 21.7083Z" fill="#2C3E50"/>
</svg>
