<svg width="25" height="26" viewBox="0 0 25 26" fill="none" xmlns="http://www.w3.org/2000/svg">
<g clip-path="url(#clip0_11_8)">
<path fill-rule="evenodd" clip-rule="evenodd" d="M17.9678 3.56249C17.66 3.56249 17.3553 3.62312 17.0709 3.7409C16.7866 3.85869 16.5282 4.03133 16.3106 4.24896C16.0929 4.4666 15.9203 4.72497 15.8025 5.00933C15.6847 5.29369 15.6241 5.59846 15.6241 5.90624C15.6241 6.21403 15.6847 6.5188 15.8025 6.80316C15.9203 7.08752 16.0929 7.34589 16.3106 7.56353C16.5282 7.78116 16.7866 7.9538 17.0709 8.07159C17.3553 8.18937 17.66 8.24999 17.9678 8.24999C18.5894 8.24999 19.1856 8.00306 19.6251 7.56353C20.0647 7.12399 20.3116 6.52785 20.3116 5.90624C20.3116 5.28464 20.0647 4.6885 19.6251 4.24896C19.1856 3.80942 18.5894 3.56249 17.9678 3.56249ZM14.1397 5.12499C14.319 4.24196 14.7981 3.44806 15.4958 2.87782C16.1934 2.30759 17.0668 1.99608 17.9678 1.99608C18.8689 1.99608 19.7422 2.30759 20.4399 2.87782C21.1376 3.44806 21.6167 4.24196 21.796 5.12499H24.9991V6.68749H21.796C21.6167 7.57053 21.1376 8.36443 20.4399 8.93466C19.7422 9.5049 18.8689 9.81641 17.9678 9.81641C17.0668 9.81641 16.1934 9.5049 15.4958 8.93466C14.7981 8.36443 14.319 7.57053 14.1397 6.68749H-0.000915527V5.12499H14.1397ZM7.03033 11.375C6.40873 11.375 5.81259 11.6219 5.37305 12.0615C4.93351 12.501 4.68658 13.0971 4.68658 13.7187C4.68658 14.3403 4.93351 14.9365 5.37305 15.376C5.81259 15.8156 6.40873 16.0625 7.03033 16.0625C7.65194 16.0625 8.24808 15.8156 8.68762 15.376C9.12715 14.9365 9.37408 14.3403 9.37408 13.7187C9.37408 13.0971 9.12715 12.501 8.68762 12.0615C8.24808 11.6219 7.65194 11.375 7.03033 11.375ZM3.20221 12.9375C3.38152 12.0545 3.86059 11.2606 4.55826 10.6903C5.25592 10.1201 6.12928 9.80858 7.03033 9.80858C7.93139 9.80858 8.80475 10.1201 9.50241 10.6903C10.2001 11.2606 10.6792 12.0545 10.8585 12.9375H24.9991V14.5H10.8585C10.6792 15.383 10.2001 16.1769 9.50241 16.7472C8.80475 17.3174 7.93139 17.6289 7.03033 17.6289C6.12928 17.6289 5.25592 17.3174 4.55826 16.7472C3.86059 16.1769 3.38152 15.383 3.20221 14.5H-0.000915527V12.9375H3.20221ZM17.9678 19.1875C17.3462 19.1875 16.7501 19.4344 16.3106 19.874C15.871 20.3135 15.6241 20.9096 15.6241 21.5312C15.6241 22.1528 15.871 22.749 16.3106 23.1885C16.7501 23.6281 17.3462 23.875 17.9678 23.875C18.5894 23.875 19.1856 23.6281 19.6251 23.1885C20.0647 22.749 20.3116 22.1528 20.3116 21.5312C20.3116 20.9096 20.0647 20.3135 19.6251 19.874C19.1856 19.4344 18.5894 19.1875 17.9678 19.1875ZM14.1397 20.75C14.319 19.867 14.7981 19.0731 15.4958 18.5028C16.1934 17.9326 17.0668 17.6211 17.9678 17.6211C18.8689 17.6211 19.7422 17.9326 20.4399 18.5028C21.1376 19.0731 21.6167 19.867 21.796 20.75H24.9991V22.3125H21.796C21.6167 23.1955 21.1376 23.9894 20.4399 24.5597C19.7422 25.1299 18.8689 25.4414 17.9678 25.4414C17.0668 25.4414 16.1934 25.1299 15.4958 24.5597C14.7981 23.9894 14.319 23.1955 14.1397 22.3125H-0.000915527V20.75H14.1397Z" fill="#2C3E50"/>
</g>
<defs>
<clipPath id="clip0_11_8">
<rect width="25" height="25" fill="white" transform="translate(-0.000915527 0.4375)"/>
</clipPath>
</defs>
</svg>
