<svg width="25" height="26" viewBox="0 0 25 26" fill="none" xmlns="http://www.w3.org/2000/svg">
<path d="M24.6591 22.0525L19.791 17.1843C19.5712 16.9646 19.2734 16.8425 18.9609 16.8425H18.165C19.5126 15.1189 20.3134 12.9509 20.3134 10.5925C20.3134 4.98218 15.7675 0.436279 10.1572 0.436279C4.54681 0.436279 0.000915527 4.98218 0.000915527 10.5925C0.000915527 16.2029 4.54681 20.7488 10.1572 20.7488C12.5156 20.7488 14.6835 19.948 16.4072 18.6003V19.3962C16.4072 19.7087 16.5292 20.0066 16.749 20.2263L21.6171 25.0945C22.0761 25.5535 22.8183 25.5535 23.2724 25.0945L24.6542 23.7126C25.1132 23.2537 25.1132 22.5115 24.6591 22.0525ZM10.1572 16.8425C6.70502 16.8425 3.90717 14.0496 3.90717 10.5925C3.90717 7.14038 6.70013 4.34253 10.1572 4.34253C13.6093 4.34253 16.4072 7.1355 16.4072 10.5925C16.4072 14.0447 13.6142 16.8425 10.1572 16.8425Z" fill="#2C3E50"/>
</svg>
