<svg width="100" height="100" viewBox="0 0 100 100" fill="none" xmlns="http://www.w3.org/2000/svg">
<path d="M98.9559 93.8505H73.8985C73.3222 93.8505 72.8545 93.3828 72.8545 92.8065V12.0626C72.8545 8.80197 75.5069 6.14954 78.7675 6.14954H94.087C97.3476 6.14954 100 8.80197 100 12.0626V92.8065C100 93.3828 99.5323 93.8505 98.9559 93.8505ZM74.9426 91.7624H97.9119V12.0626C97.9119 9.95357 96.196 8.23765 94.087 8.23765H78.7675C76.6585 8.23765 74.9426 9.95357 74.9426 12.0626V91.7624ZM64.6445 93.8505H35.4108C34.8345 93.8505 34.3668 93.3828 34.3668 92.8065V66.8318C34.3668 63.7873 36.8438 61.3103 39.8883 61.3103H41.6319V60.5643C41.6319 59.988 42.0996 59.5203 42.6759 59.5203C43.2522 59.5203 43.72 59.988 43.72 60.5643V61.3103H45.308V60.5643C45.308 59.988 45.7757 59.5203 46.3521 59.5203C46.9284 59.5203 47.3961 59.988 47.3961 60.5643V61.3103H48.9836V60.5643C48.9836 59.988 49.4513 59.5203 50.0277 59.5203C50.604 59.5203 51.0717 59.988 51.0717 60.5643V61.3103H52.6597V60.5643C52.6597 59.988 53.1275 59.5203 53.7038 59.5203C54.2801 59.5203 54.7479 59.988 54.7479 60.5643V61.3103H56.3359V60.5643C56.3359 59.988 56.8036 59.5203 57.3799 59.5203C57.9563 59.5203 58.424 59.988 58.424 60.5643V61.3103H60.167C63.2115 61.3103 65.6886 63.7873 65.6886 66.8318V92.8065C65.6886 93.3828 65.2213 93.8505 64.6445 93.8505ZM36.4549 91.7624H63.6004V66.8318C63.6004 64.9384 62.0604 63.3984 60.167 63.3984H39.8883C37.9949 63.3984 36.4549 64.9384 36.4549 66.8318V91.7624ZM26.1015 93.8505H1.04406C0.467739 93.8505 0 93.3828 0 92.8065V12.0626C0 8.80197 2.65243 6.14954 5.91303 6.14954H21.2325C24.4931 6.14954 27.1455 8.80197 27.1455 12.0626V92.8065C27.1455 93.3828 26.6778 93.8505 26.1015 93.8505ZM2.08812 91.7624H25.0574V12.0626C25.0574 9.95357 23.3415 8.23765 21.2325 8.23765H5.91303C3.80403 8.23765 2.08812 9.95357 2.08812 12.0626V91.7624ZM90.5815 88.6485H82.2729C81.6966 88.6485 81.2289 88.1808 81.2289 87.6044C81.2289 87.0281 81.6966 86.5604 82.2729 86.5604H90.5815C91.1579 86.5604 91.6256 87.0281 91.6256 87.6044C91.6256 88.1808 91.1579 88.6485 90.5815 88.6485ZM50.0277 88.6485C47.0959 88.6485 44.7103 86.2633 44.7103 83.3311C44.7103 80.3989 47.0954 78.0132 50.0277 78.0132C52.9599 78.0132 55.3456 80.3983 55.3456 83.3311C55.3456 86.2633 52.9599 88.6485 50.0277 88.6485ZM50.0277 80.1018C48.247 80.1018 46.7984 81.5505 46.7984 83.3316C46.7984 85.1128 48.2465 86.5609 50.0277 86.5609C51.8088 86.5609 53.2575 85.1128 53.2575 83.3316C53.2575 81.5505 51.8083 80.1018 50.0277 80.1018ZM17.7271 88.6485H9.41846C8.84214 88.6485 8.3744 88.1808 8.3744 87.6044C8.3744 87.0281 8.84214 86.5604 9.41846 86.5604H17.7271C18.3034 86.5604 18.7711 87.0281 18.7711 87.6044C18.7711 88.1808 18.3039 88.6485 17.7271 88.6485ZM86.4272 50.3211C81.6778 50.3211 77.8137 46.457 77.8137 41.7076C77.8137 36.9582 81.6778 33.0941 86.4272 33.0941C91.1767 33.0941 95.0407 36.9582 95.0407 41.7076C95.0407 46.457 91.1761 50.3211 86.4272 50.3211ZM86.4272 35.1822C82.8289 35.1822 79.9019 38.1092 79.9019 41.7076C79.9019 45.3059 82.8289 48.233 86.4272 48.233C90.0256 48.233 92.9526 45.3059 92.9526 41.7076C92.9526 38.1092 90.0251 35.1822 86.4272 35.1822ZM13.5728 50.3211C8.82335 50.3211 4.95928 46.457 4.95928 41.7076C4.95928 36.9582 8.82335 33.0941 13.5728 33.0941C18.3222 33.0941 22.1863 36.9582 22.1863 41.7076C22.1863 46.457 18.3222 50.3211 13.5728 50.3211ZM13.5728 35.1822C9.97442 35.1822 7.0474 38.1092 7.0474 41.7076C7.0474 45.3059 9.97442 48.233 13.5728 48.233C17.1711 48.233 20.0981 45.3059 20.0981 41.7076C20.0981 38.1092 17.1711 35.1822 13.5728 35.1822ZM86.4272 45.449C84.3642 45.449 82.6858 43.7706 82.6858 41.7076C82.6858 39.6445 84.3642 37.9662 86.4272 37.9662C88.4903 37.9662 90.1686 39.6445 90.1686 41.7076C90.1686 43.7706 88.4903 45.449 86.4272 45.449ZM86.4272 40.0543C85.5158 40.0543 84.774 40.7961 84.774 41.7076C84.774 42.619 85.5158 43.3609 86.4272 43.3609C87.3387 43.3609 88.0805 42.619 88.0805 41.7076C88.0805 40.7961 87.3387 40.0543 86.4272 40.0543ZM13.5728 45.449C11.5097 45.449 9.83138 43.7706 9.83138 41.7076C9.83138 39.6445 11.5097 37.9662 13.5728 37.9662C15.6358 37.9662 17.3142 39.6445 17.3142 41.7076C17.3142 43.7706 15.6358 45.449 13.5728 45.449ZM13.5728 40.0543C12.6613 40.0543 11.9195 40.7961 11.9195 41.7076C11.9195 42.619 12.6613 43.3609 13.5728 43.3609C14.4842 43.3609 15.226 42.619 15.226 41.7076C15.226 40.7961 14.4842 40.0543 13.5728 40.0543ZM86.4272 29.1162C81.6778 29.1162 77.8137 25.2522 77.8137 20.5027C77.8137 15.7533 81.6778 11.8893 86.4272 11.8893C91.1767 11.8893 95.0407 15.7533 95.0407 20.5027C95.0407 25.2522 91.1761 29.1162 86.4272 29.1162ZM86.4272 13.9774C82.8289 13.9774 79.9019 16.9044 79.9019 20.5027C79.9019 24.1011 82.8289 27.0281 86.4272 27.0281C90.0256 27.0281 92.9526 24.1011 92.9526 20.5027C92.9526 16.9044 90.0251 13.9774 86.4272 13.9774ZM13.5728 29.1162C8.82335 29.1162 4.95928 25.2522 4.95928 20.5027C4.95928 15.7533 8.82335 11.8893 13.5728 11.8893C18.3222 11.8893 22.1863 15.7533 22.1863 20.5027C22.1863 25.2522 18.3222 29.1162 13.5728 29.1162ZM13.5728 13.9774C9.97442 13.9774 7.0474 16.9044 7.0474 20.5027C7.0474 24.1011 9.97442 27.0281 13.5728 27.0281C17.1711 27.0281 20.0981 24.1011 20.0981 20.5027C20.0981 16.9044 17.1711 13.9774 13.5728 13.9774ZM86.4272 24.2441C84.3642 24.2441 82.6858 22.5658 82.6858 20.5027C82.6858 18.4397 84.3642 16.7614 86.4272 16.7614C88.4903 16.7614 90.1686 18.4397 90.1686 20.5027C90.1686 22.5658 88.4903 24.2441 86.4272 24.2441ZM86.4272 18.8495C85.5158 18.8495 84.774 19.5913 84.774 20.5027C84.774 21.4142 85.5158 22.156 86.4272 22.156C87.3387 22.156 88.0805 21.4142 88.0805 20.5027C88.0805 19.5913 87.3387 18.8495 86.4272 18.8495ZM13.5728 24.2441C11.5097 24.2441 9.83138 22.5658 9.83138 20.5027C9.83138 18.4397 11.5097 16.7614 13.5728 16.7614C15.6358 16.7614 17.3142 18.4397 17.3142 20.5027C17.3142 22.5658 15.6358 24.2441 13.5728 24.2441ZM13.5728 18.8495C12.6613 18.8495 11.9195 19.5913 11.9195 20.5027C11.9195 21.4142 12.6613 22.156 13.5728 22.156C14.4842 22.156 15.226 21.4142 15.226 20.5027C15.226 19.5913 14.4842 18.8495 13.5728 18.8495Z" fill="#2C3E50"/>
</svg>
