<svg width="26" height="26" viewBox="0 0 26 26" fill="none" xmlns="http://www.w3.org/2000/svg">
<path d="M20.6611 5.61621C18.6152 3.56543 15.8906 2.4375 12.9951 2.4375C7.01855 2.4375 2.15527 7.30078 2.15527 13.2773C2.15527 15.1865 2.65332 17.0518 3.60059 18.6973L2.0625 24.3125L7.80957 22.8037C9.3916 23.668 11.1738 24.1221 12.9902 24.1221H12.9951C18.9668 24.1221 23.9375 19.2588 23.9375 13.2822C23.9375 10.3867 22.707 7.66699 20.6611 5.61621ZM12.9951 22.2959C11.374 22.2959 9.78711 21.8613 8.40527 21.041L8.07812 20.8457L4.66992 21.7393L5.57812 18.4141L5.36328 18.0723C4.45996 16.6367 3.98633 14.9814 3.98633 13.2773C3.98633 8.31152 8.0293 4.26855 13 4.26855C15.4072 4.26855 17.668 5.20605 19.3672 6.91016C21.0664 8.61426 22.1113 10.875 22.1064 13.2822C22.1064 18.2529 17.9609 22.2959 12.9951 22.2959ZM17.9365 15.5479C17.668 15.4111 16.335 14.7568 16.0859 14.6689C15.8369 14.5762 15.6563 14.5322 15.4756 14.8057C15.2949 15.0791 14.7773 15.6846 14.6162 15.8701C14.46 16.0508 14.2988 16.0752 14.0303 15.9385C12.4385 15.1426 11.3936 14.5176 10.3438 12.7158C10.0654 12.2373 10.6221 12.2715 11.1396 11.2363C11.2275 11.0557 11.1836 10.8994 11.1152 10.7627C11.0469 10.626 10.5049 9.29297 10.2803 8.75098C10.0605 8.22363 9.83594 8.29688 9.66992 8.28711C9.51367 8.27734 9.33301 8.27734 9.15234 8.27734C8.97168 8.27734 8.67871 8.3457 8.42969 8.61426C8.18066 8.8877 7.48242 9.54199 7.48242 10.875C7.48242 12.208 8.4541 13.4971 8.58594 13.6777C8.72266 13.8584 10.4951 16.5928 13.2148 17.7695C14.9336 18.5117 15.6074 18.5752 16.4668 18.4482C16.9893 18.3701 18.0684 17.7939 18.293 17.1592C18.5176 16.5244 18.5176 15.9824 18.4492 15.8701C18.3857 15.748 18.2051 15.6797 17.9365 15.5479Z" fill="#2C3E50"/>
</svg>
