<svg width="26" height="26" viewBox="0 0 26 26" fill="none" xmlns="http://www.w3.org/2000/svg">
<path d="M24.3566 7.64944C24.0839 6.62297 23.2807 5.81454 22.2609 5.5402C20.4124 5.04167 13 5.04167 13 5.04167C13 5.04167 5.58767 5.04167 3.73911 5.5402C2.71927 5.81459 1.91606 6.62297 1.64345 7.64944C1.14813 9.50999 1.14813 13.3918 1.14813 13.3918C1.14813 13.3918 1.14813 17.2737 1.64345 19.1342C1.91606 20.1607 2.71927 20.9355 3.73911 21.2098C5.58767 21.7083 13 21.7083 13 21.7083C13 21.7083 20.4123 21.7083 22.2609 21.2098C23.2807 20.9355 24.0839 20.1607 24.3566 19.1342C24.8519 17.2737 24.8519 13.3918 24.8519 13.3918C24.8519 13.3918 24.8519 9.50999 24.3566 7.64944ZM10.5757 16.9163V9.86741L16.771 13.3919L10.5757 16.9163Z" fill="#2C3E50"/>
</svg>
